<svg xmlns="http://www.w3.org/2000/svg" viewBox="0 0 640 640" width="640" height="640">
  <!-- Randomly generated colors with no adjacent hues and white strokes -->
  <rect x="0" y="0" width="160" height="160" fill="hsl(12, 65%, 45%)" stroke="white" stroke-width="16" />
  <rect x="160" y="0" width="160" height="160" fill="hsl(240, 50%, 60%)" stroke="white" stroke-width="16" />
  <rect x="320" y="0" width="160" height="160" fill="hsl(90, 70%, 35%)" stroke="white" stroke-width="16" />
  <rect x="480" y="0" width="160" height="160" fill="hsl(300, 40%, 55%)" stroke="white" stroke-width="16" />

  <rect x="0" y="160" width="160" height="160" fill="hsl(180, 55%, 50%)" stroke="white" stroke-width="16" />
  <rect x="160" y="160" width="160" height="160" fill="hsl(30, 60%, 40%)" stroke="white" stroke-width="16" />
  <rect x="320" y="160" width="160" height="160" fill="hsl(270, 45%, 65%)" stroke="white" stroke-width="16" />
  <rect x="480" y="160" width="160" height="160" fill="hsl(120, 75%, 30%)" stroke="white" stroke-width="16" />

  <rect x="0" y="320" width="160" height="160" fill="hsl(330, 50%, 60%)" stroke="white" stroke-width="16" />
  <rect x="160" y="320" width="160" height="160" fill="hsl(60, 65%, 45%)" stroke="white" stroke-width="16" />
  <rect x="320" y="320" width="160" height="160" fill="hsl(210, 40%, 55%)" stroke="white" stroke-width="16" />
  <rect x="480" y="320" width="160" height="160" fill="hsl(150, 70%, 35%)" stroke="white" stroke-width="16" />

  <rect x="0" y="480" width="160" height="160" fill="hsl(0, 75%, 40%)" stroke="white" stroke-width="16" />
  <rect x="160" y="480" width="160" height="160" fill="hsl(200, 55%, 50%)" stroke="white" stroke-width="16" />
  <rect x="320" y="480" width="160" height="160" fill="hsl(90, 45%, 65%)" stroke="white" stroke-width="16" />
  <rect x="480" y="480" width="160" height="160" fill="hsl(300, 60%, 30%)" stroke="white" stroke-width="16" />
</svg>
